PathFileType  4	(X/Y/Z) C:\Users\antoi\Documents\MyRepositories\mobilecap\ResultsAnalysis
DataRate	CameraRate	NumFrames	NumMarkers	Units	OrigDataRate	OrigDataStartFrame	OrigNumFrames
100.0	100.0	7	51	mm	100.0	84	133
Frame#	Time	r_knee			r_shank_antsup			r_ankle			r_calc			r_5meta			r_toe			L_knee			L_shank_antsup			L_ankle			L_calc			L_5meta			L_toe			r_sh2			r_sh3			r_sh4			L_sh2			L_sh3			r_thigh1			r_thigh2			r_thigh3			r_thigh4			r_thigh5			L_thigh1			L_thigh2			L_thigh3			L_thigh4			r.ASIS			r.PSIS			L.ASIS			L.PSIS			C7			R_Shoulder			L_Shoulder			R_Sternum			L_Sternum			R_humerus			R_elbow_med			R_elbow_lat			R_forearm			R_wrist_radius			R_wrist_ulna			L_humerus			L_elbow_med			L_elbow_lat			L_forearm			L_wrist_radius			L_wrist_ulna			R_HJC			L_HJC			R_HJC_reg			L_HJC_reg			
		X1	Y1	Z1	X2	Y2	Z2	X3	Y3	Z3	X4	Y4	Z4	X5	Y5	Z5	X6	Y6	Z6	X7	Y7	Z7	X8	Y8	Z8	X9	Y9	Z9	X10	Y10	Z10	X11	Y11	Z11	X12	Y12	Z12	X13	Y13	Z13	X14	Y14	Z14	X15	Y15	Z15	X16	Y16	Z16	X17	Y17	Z17	X18	Y18	Z18	X19	Y19	Z19	X20	Y20	Z20	X21	Y21	Z21	X22	Y22	Z22	X23	Y23	Z23	X24	Y24	Z24	X25	Y25	Z25	X26	Y26	Z26	X27	Y27	Z27	X28	Y28	Z28	X29	Y29	Z29	X30	Y30	Z30	X31	Y31	Z31	X32	Y32	Z32	X33	Y33	Z33	X34	Y34	Z34	X35	Y35	Z35	X36	Y36	Z36	X37	Y37	Z37	X38	Y38	Z38	X39	Y39	Z39	X40	Y40	Z40	X41	Y41	Z41	X42	Y42	Z42	X43	Y43	Z43	X44	Y44	Z44	X45	Y45	Z45	X46	Y46	Z46	X47	Y47	Z47	X48	Y48	Z48	X49	Y49	Z49	X50	Y50	Z50	X51	Y51	Z51	

84	0.83000000	926.64762	497.84945	-25.13112	933.63102	431.05244	-33.90999	614.97566	255.98866	-69.29787	559.02830	275.88559	-127.98549	639.77985	112.74901	-23.93113	688.23618	97.32638	-73.37487	882.53115	486.42881	-310.47504	909.78468	397.86321	-312.77634	823.08999	91.77454	-246.43543	761.06112	60.25959	-191.63433	941.51387	41.26497	-269.68557	986.18805	61.46212	-216.12237	846.55407	354.99791	-50.72613	882.27217	480.16651	-2.40460	794.62546	404.94699	-4.46765	822.84377	412.18429	-331.98866	810.08254	292.06365	-317.24767	931.03552	797.53955	-83.50184	976.31492	695.20142	-73.21749	956.83956	669.58228	-10.43253	862.02094	774.77828	3.44737	902.57869	669.09826	11.25937	882.41809	812.65404	-351.32179	904.06222	672.50294	-350.73272	772.30345	795.09128	-358.76452	788.62305	661.39939	-334.12373	880.47145	949.47446	-51.96878	692.96718	986.07314	-137.38774	899.79752	944.89362	-287.31730	698.11799	989.73016	-235.85972	767.61128	1463.15779	-205.36336	809.70424	1437.22280	-42.42376	833.28753	1402.87713	-358.35052	871.64325	1361.21033	-175.36760	876.05599	1354.31711	-212.71470	814.33424	1205.91537	55.55713	752.07718	1112.32037	35.00077	791.04577	1117.87842	85.54569	869.99277	994.87376	93.75556	916.52532	902.20276	72.26711	888.83748	894.27034	107.64017	813.84191	1168.78328	-429.34954	765.07763	1066.16584	-377.66598	780.55609	1070.02624	-436.31114	853.50988	945.68367	-457.61003	903.73433	850.02878	-438.50570	865.18845	835.86181	-455.81023	807.04740	868.96555	-91.79889	808.44642	877.53438	-282.26006	814.83457	873.58575	-90.90187	822.96576	879.35857	-246.45354	
85	0.84000000	946.93397	502.85085	-26.03135	956.03931	436.59932	-34.52659	644.03060	249.89036	-68.03468	586.65920	266.58204	-126.50879	675.86913	108.74745	-21.41704	724.37763	95.05175	-71.35659	885.43574	486.48034	-310.75939	911.42816	397.73255	-313.19809	823.20850	91.82180	-246.31254	761.21056	60.30808	-191.53776	941.52379	41.25117	-269.72885	986.21143	61.36775	-216.22278	871.84203	357.45446	-50.98690	902.84575	484.00832	-3.31129	818.19160	405.55692	-4.79520	824.40590	412.80653	-331.71653	810.73728	292.78825	-316.90444	944.37261	802.80779	-84.02412	992.16849	701.68167	-74.12755	974.00668	675.65210	-11.23484	876.97922	778.59222	3.37292	920.04181	673.92779	10.97302	891.41611	812.80428	-351.18377	910.70961	672.47270	-350.35482	780.96424	797.06807	-358.56795	794.80806	662.91558	-333.96640	892.62284	952.31689	-53.41456	704.51852	988.38323	-136.70812	910.20640	946.26125	-288.66379	709.00465	991.39327	-235.24144	779.48490	1465.07314	-205.46893	821.49542	1438.79004	-42.47723	845.55064	1405.49937	-358.30752	883.38895	1363.28800	-175.50708	887.79213	1356.43147	-212.76537	823.16888	1206.66422	54.80256	759.39216	1114.63293	33.45186	798.11439	1119.16296	84.08677	870.51147	993.17060	94.73194	912.36063	897.35324	75.36840	884.14779	891.74960	110.82731	829.97231	1171.57090	-429.89723	782.29593	1067.90789	-379.10574	798.57688	1071.88336	-437.35943	876.62516	950.24706	-456.25156	930.85062	857.10238	-436.08728	893.06976	841.19138	-453.93481	819.13121	871.51853	-91.73515	818.69896	878.97274	-282.24983	826.66272	876.28730	-91.37150	833.74204	881.03615	-246.88372	
86	0.85000000	966.62691	507.42998	-27.15183	978.00709	441.86826	-35.40047	673.76233	242.52735	-66.66248	614.99719	255.96739	-124.71380	713.10669	103.70937	-19.53289	761.63206	92.20437	-70.03449	888.24268	486.50995	-311.00606	912.95375	397.61034	-313.62131	823.32607	91.87455	-246.14626	761.36360	60.31195	-191.40487	941.52336	41.23214	-269.77118	986.21606	61.25105	-216.31154	897.13011	359.52002	-51.34448	923.03448	487.19009	-4.10471	841.60005	405.40808	-5.01495	825.85131	413.45836	-331.29549	811.29838	293.54602	-316.44217	957.64859	807.68448	-84.64350	1007.56841	707.72110	-75.17875	990.93431	681.41175	-12.19526	891.74855	782.23270	3.38920	937.32735	678.57757	10.63424	900.36353	812.79134	-351.02372	917.23292	672.33043	-349.91999	789.51964	798.94997	-358.24335	800.84292	664.38962	-333.62688	904.66473	954.96409	-54.86905	716.04864	990.46482	-136.00579	920.60069	947.31711	-289.88324	719.90018	992.96823	-234.60670	791.31978	1466.77143	-205.50639	833.49076	1440.10256	-42.50785	857.66306	1407.95638	-358.27097	895.11060	1365.16838	-175.75308	899.52005	1358.37420	-212.91159	831.81297	1207.27258	54.21779	766.58674	1116.82223	32.04915	804.96311	1120.40212	82.80303	870.85676	991.89577	95.74026	908.11460	893.35328	78.44739	879.51908	890.00641	113.92454	845.95636	1174.25103	-430.45516	799.57241	1069.54595	-380.52415	816.47226	1073.75940	-438.37816	899.58954	955.01617	-454.89070	957.68849	864.55834	-433.59468	920.68822	846.99957	-451.97705	831.11698	873.87679	-91.62064	828.90978	880.18325	-282.16690	838.47804	878.59996	-91.94857	844.55124	882.54560	-247.33117	
87	0.86000000	985.72846	511.57194	-28.45377	999.52614	446.83604	-36.52127	704.27401	234.06566	-65.16733	644.08011	244.23843	-122.52567	751.56417	97.83231	-18.31036	799.94360	88.94173	-69.48721	891.01207	486.52205	-311.21450	914.49868	397.48097	-313.99994	823.44056	91.96318	-245.97759	761.52248	60.26002	-191.23887	941.51419	41.20623	-269.81016	986.19510	61.10639	-216.38686	922.41339	361.22538	-51.77916	942.86912	489.70256	-4.76315	864.92333	404.53654	-5.14369	827.36395	414.10720	-330.83625	811.93163	294.30526	-315.96482	970.90719	812.12040	-85.37554	1022.50386	713.24384	-76.37584	1007.61658	686.79897	-13.31390	906.36544	785.67835	3.47417	954.41475	682.98949	10.22329	909.25987	812.63477	-350.83336	923.64971	672.05887	-349.46837	797.99140	800.73183	-357.78096	806.77288	665.82131	-333.13319	916.61195	957.37581	-56.26154	727.55381	992.30964	-135.29553	930.99100	948.05056	-290.92776	730.81034	994.43692	-233.96974	803.13035	1468.24316	-205.49010	845.67800	1441.13332	-42.52166	869.63550	1410.21195	-358.24346	906.82064	1366.81810	-176.09135	911.24640	1360.11282	-213.14117	840.27574	1207.75396	53.80019	773.64773	1118.89514	30.82981	811.60065	1121.59121	81.70464	871.17003	990.99103	96.79478	903.90971	890.12568	81.46908	875.05592	888.93099	116.90878	861.80913	1176.80538	-431.01986	816.93837	1071.03888	-381.89976	834.27504	1075.59768	-439.36082	922.40006	959.94491	-453.59152	984.19397	872.33626	-431.04326	948.05546	853.20965	-449.96075	842.98947	876.01538	-91.43452	839.10199	881.15215	-281.99154	850.26569	880.51301	-92.56519	855.39340	883.86026	-247.74477	
88	0.87000000	1004.24595	515.27697	-29.85997	1020.60437	451.49329	-37.86747	735.66410	224.67892	-63.56082	673.96921	231.58687	-119.90000	791.26274	91.35318	-17.77539	839.22325	85.43623	-69.76430	893.80676	486.51966	-311.38606	916.17402	397.33371	-314.30315	823.54950	92.11228	-245.84191	761.68556	60.16515	-191.05024	941.50108	41.17444	-269.84426	986.15236	60.93729	-216.44875	947.68339	362.60062	-52.29752	962.36738	491.55048	-5.27588	888.27591	402.95363	-5.18877	829.07985	414.72785	-330.43106	812.75470	295.04282	-315.55126	984.15745	816.08504	-86.23001	1036.98452	718.20023	-77.71563	1024.03196	691.75182	-14.58380	920.89986	788.91004	3.58764	971.29170	687.12594	9.70798	918.09362	812.36521	-350.60407	929.99959	671.65498	-349.01957	806.40716	802.40613	-357.18645	812.67644	667.21080	-332.53047	928.49791	959.51244	-57.50124	739.03368	993.91331	-134.58414	941.38955	948.47495	-291.77457	741.74250	995.76234	-233.32848	814.92934	1469.48670	-205.43548	858.03519	1441.87013	-42.53200	881.48097	1412.24045	-358.22592	918.53276	1368.21006	-176.49815	922.97243	1361.61946	-213.43764	848.58627	1208.12662	53.53654	780.56471	1120.87160	29.82109	818.04894	1122.73341	80.79870	871.58718	990.40290	97.90534	899.85196	887.58337	84.39235	870.85434	888.40873	119.76627	877.54543	1179.22608	-431.58211	834.38986	1072.36760	-383.21394	852.02297	1077.35122	-440.30006	945.03798	964.99259	-452.38147	1010.31468	880.38924	-428.44843	975.19871	859.73597	-447.91706	854.75533	877.90898	-91.15599	849.30649	881.87435	-281.70524	862.01128	882.04063	-93.12463	866.26812	884.94374	-248.07419	
89	0.88000000	1022.18662	518.54748	-31.28184	1041.25489	455.83857	-39.40516	768.00904	214.54499	-61.89181	704.74383	218.18152	-116.85994	832.16634	84.54992	-17.92733	879.36171	81.88196	-70.86097	896.67919	486.50295	-311.52728	918.03793	397.16299	-314.52813	823.65559	92.33017	-245.75596	761.84388	60.06636	-190.85698	941.49006	41.13840	-269.87183	986.10394	60.75529	-216.49852	972.91297	363.67659	-52.92926	981.53896	492.74539	-5.64970	911.78514	400.66466	-5.14255	831.05630	415.30812	-330.13110	813.81346	295.74995	-315.24058	997.36152	819.55880	-87.20351	1051.05577	722.56492	-79.18568	1040.13877	696.20603	-15.98774	935.41508	791.90321	3.68866	987.92909	690.95048	9.06321	926.84463	812.01026	-350.34224	936.33166	671.12666	-348.57930	814.79785	803.96212	-356.48194	818.65204	668.55808	-331.86962	940.35738	961.33731	-58.51237	750.49325	995.26864	-133.87180	951.80934	948.61772	-292.42566	752.70694	996.90081	-232.67130	826.72631	1470.50419	-205.35610	870.53208	1442.32202	-42.55223	893.21523	1414.02412	-358.21707	930.26124	1369.32384	-176.94509	934.69688	1362.87031	-213.78281	856.78962	1208.40836	53.40653	787.33479	1122.77818	29.03744	824.34332	1123.83835	80.09139	872.21461	990.08650	99.07369	896.03552	885.64115	87.17065	867.00723	888.33607	122.48317	893.17687	1181.50795	-432.12765	851.87664	1073.54099	-384.45311	869.74910	1078.98554	-441.18725	967.46555	970.12477	-451.25285	1036.00052	888.68183	-425.82776	1002.12644	866.49286	-445.87714	866.43582	879.53089	-90.77540	859.55464	882.35191	-281.30117	873.70528	883.20544	-93.54296	877.17637	885.76246	-248.28737	
90	0.89000000	1039.54939	521.37981	-32.64467	1061.47182	459.87077	-41.09266	801.34915	203.84491	-60.24438	736.49039	204.16828	-113.51511	874.17919	77.72734	-18.72500	920.23785	78.48893	-72.70303	899.65977	486.46959	-311.64988	920.09111	396.96735	-314.69855	823.77063	92.60659	-245.71377	761.98329	60.01563	-190.67945	941.48616	41.09735	-269.88931	986.07589	60.57508	-216.53867	998.04105	364.48254	-53.71384	1000.38769	493.30444	-5.90976	935.54991	397.69648	-4.98411	833.27344	415.84793	-329.94097	815.08602	296.43324	-315.03417	1010.43271	822.52311	-88.27310	1064.78761	726.32667	-80.76387	1055.87847	700.09901	-17.49740	949.92932	794.61876	3.75230	1004.26807	694.41203	8.28856	935.49864	811.58241	-350.07342	942.69086	670.48817	-348.14965	823.19590	805.38774	-355.70157	824.79484	669.85992	-331.20146	952.21631	962.82186	-59.26314	761.94449	996.36404	-133.15319	962.26588	948.51181	-292.90459	763.71480	997.81423	-231.98385	838.52931	1471.29730	-205.26241	883.12972	1442.51687	-42.59429	904.85747	1415.55063	-358.21309	942.02143	1370.14677	-177.40461	946.42081	1363.84589	-214.15873	864.93852	1208.61334	53.38605	793.96551	1124.64171	28.47886	830.52773	1124.91974	79.58642	873.11941	990.00503	100.29058	892.55321	884.22277	89.75850	863.60847	888.63169	125.03716	908.70992	1183.64262	-432.63959	869.31527	1074.58962	-385.60789	887.47195	1080.47878	-442.01181	989.63174	975.31225	-450.17805	1061.20337	897.17632	-423.20420	1028.79482	873.40681	-443.86296	878.06151	880.85601	-90.30138	869.87254	882.59328	-280.79069	885.35048	884.02955	-93.77914	888.12088	886.29758	-248.37936	
